# Blender v2.93.2 OBJ File: 'palmtree.blend'
# www.blender.org
mtllib ball.mtl
o Sphere_Sphere.002
v 0.000000 0.051764 0.193185
v 0.000000 0.100000 0.173205
v 0.000000 0.141421 0.141421
v 0.000000 0.173205 0.100000
v 0.000000 0.193185 0.051764
v 0.000000 0.200000 0.000000
v 0.000000 0.193185 -0.051764
v 0.000000 0.141421 -0.141421
v 0.000000 0.051764 -0.193185
v 0.025882 0.044829 0.193185
v 0.050000 0.086603 0.173205
v 0.070711 0.122474 0.141421
v 0.086603 0.150000 0.100000
v 0.096593 0.167303 0.051764
v 0.100000 0.173205 0.000000
v 0.096593 0.167303 -0.051764
v 0.086603 0.150000 -0.100000
v 0.070711 0.122474 -0.141421
v 0.050000 0.086603 -0.173205
v 0.025882 0.044829 -0.193185
v 0.044829 0.025882 0.193185
v 0.086603 0.050000 0.173205
v 0.122475 0.070711 0.141421
v 0.150000 0.086603 0.100000
v 0.167303 0.096593 0.051764
v 0.173205 0.100000 0.000000
v 0.167303 0.096593 -0.051764
v 0.150000 0.086603 -0.100000
v 0.122475 0.070711 -0.141421
v 0.086603 0.050000 -0.173205
v 0.044829 0.025882 -0.193185
v 0.051764 -0.000000 0.193185
v 0.100000 -0.000000 0.173205
v 0.141421 -0.000000 0.141421
v 0.173205 -0.000000 0.100000
v 0.193185 -0.000000 0.051764
v 0.200000 -0.000000 0.000000
v 0.193185 -0.000000 -0.051764
v 0.173205 -0.000000 -0.100000
v 0.141421 -0.000000 -0.141421
v 0.100000 -0.000000 -0.173205
v 0.051764 -0.000000 -0.193185
v 0.044829 -0.025882 0.193185
v 0.086603 -0.050000 0.173205
v 0.122475 -0.070711 0.141421
v 0.150000 -0.086603 0.100000
v 0.167303 -0.096593 0.051764
v 0.173205 -0.100000 0.000000
v 0.167303 -0.096593 -0.051764
v 0.150000 -0.086603 -0.100000
v 0.122475 -0.070711 -0.141421
v 0.086603 -0.050000 -0.173205
v 0.044829 -0.025882 -0.193185
v 0.025882 -0.044829 0.193185
v 0.050000 -0.086603 0.173205
v 0.070711 -0.122475 0.141421
v 0.086603 -0.150000 0.100000
v 0.096593 -0.167303 0.051764
v 0.100000 -0.173205 0.000000
v 0.096593 -0.167303 -0.051764
v 0.086603 -0.150000 -0.100000
v 0.070711 -0.122475 -0.141421
v 0.050000 -0.086603 -0.173205
v 0.025882 -0.044829 -0.193185
v -0.000000 -0.051764 0.193185
v -0.000000 -0.100000 0.173205
v 0.000000 -0.141421 0.141421
v -0.000000 -0.173205 0.100000
v 0.000000 -0.193185 0.051764
v -0.000000 -0.200000 0.000000
v 0.000000 -0.193185 -0.051764
v -0.000000 -0.173205 -0.100000
v 0.000000 -0.141421 -0.141421
v 0.000000 -0.100000 -0.173205
v -0.000000 -0.051764 -0.193185
v -0.000000 -0.000000 0.200000
v -0.025882 -0.044829 0.193185
v -0.050000 -0.086603 0.173205
v -0.070711 -0.122475 0.141421
v -0.086603 -0.150000 0.100000
v -0.096593 -0.167303 0.051764
v -0.100000 -0.173205 0.000000
v -0.096593 -0.167303 -0.051764
v -0.086603 -0.150000 -0.100000
v -0.070711 -0.122475 -0.141421
v -0.050000 -0.086603 -0.173205
v -0.025882 -0.044829 -0.193185
v -0.044829 -0.025882 0.193185
v -0.086603 -0.050000 0.173205
v -0.122474 -0.070711 0.141421
v -0.150000 -0.086603 0.100000
v -0.167303 -0.096593 0.051764
v -0.173205 -0.100000 0.000000
v -0.167303 -0.096593 -0.051764
v -0.150000 -0.086603 -0.100000
v -0.122474 -0.070711 -0.141421
v -0.086603 -0.050000 -0.173205
v -0.044829 -0.025882 -0.193185
v -0.051764 -0.000000 0.193185
v -0.100000 -0.000000 0.173205
v -0.141421 -0.000000 0.141421
v -0.173205 -0.000000 0.100000
v -0.193185 -0.000000 0.051764
v -0.200000 -0.000000 0.000000
v -0.193185 -0.000000 -0.051764
v -0.173205 0.000000 -0.100000
v -0.141421 -0.000000 -0.141421
v -0.100000 -0.000000 -0.173205
v -0.051764 -0.000000 -0.193185
v 0.000000 -0.000000 -0.200000
v -0.044829 0.025882 0.193185
v -0.086603 0.050000 0.173205
v -0.122474 0.070711 0.141421
v -0.150000 0.086603 0.100000
v -0.167303 0.096593 0.051764
v -0.173205 0.100000 0.000000
v -0.167303 0.096593 -0.051764
v -0.150000 0.086603 -0.100000
v -0.122474 0.070711 -0.141421
v -0.086603 0.050000 -0.173205
v -0.044829 0.025882 -0.193185
v -0.025882 0.044829 0.193185
v -0.050000 0.086603 0.173205
v -0.070711 0.122474 0.141421
v -0.086603 0.150000 0.100000
v -0.096593 0.167303 0.051764
v -0.100000 0.173205 0.000000
v -0.096593 0.167303 -0.051764
v -0.086603 0.150000 -0.100000
v -0.070711 0.122474 -0.141421
v -0.050000 0.086603 -0.173205
v -0.025882 0.044829 -0.193185
v 0.000000 0.173205 -0.100000
v -0.000000 0.100000 -0.173205
vt 0.375000 0.375000
vt 0.297967 0.375000
vt 0.297967 0.281850
vt 0.375000 0.281850
vt 0.149189 0.375000
vt 0.075293 0.375000
vt 0.075293 0.281850
vt 0.149189 0.281850
vt 0.674707 0.375000
vt 0.600811 0.375000
vt 0.600811 0.281850
vt 0.674707 0.281850
vt 0.452033 0.375000
vt 0.452033 0.281850
vt 0.223339 0.375000
vt 0.223339 0.281850
vt 0.749121 0.375000
vt 0.749121 0.281850
vt 0.965864 0.125000
vt 0.875000 0.125000
vt 0.953690 0.079568
vt 0.526661 0.375000
vt 0.526661 0.281850
vt 0.875000 0.125000
vt 0.829568 0.046310
vt 0.875000 0.034136
vt 0.000879 0.375000
vt 0.000879 0.281850
vt 0.000879 0.217000
vt 0.075293 0.217000
vt 0.075293 0.125000
vt 0.000879 0.125000
vt 0.920432 0.046310
vt 0.223339 0.217000
vt 0.297967 0.217000
vt 0.297967 0.125000
vt 0.223339 0.125000
vt 0.452033 0.217000
vt 0.526661 0.217000
vt 0.526661 0.125000
vt 0.452033 0.125000
vt 0.920432 0.046310
vt 0.674707 0.217000
vt 0.749121 0.217000
vt 0.749121 0.125000
vt 0.674707 0.125000
vt 0.149189 0.217000
vt 0.149189 0.125000
vt 0.375000 0.217000
vt 0.375000 0.125000
vt 0.600811 0.217000
vt 0.600811 0.125000
vt 0.674707 0.033000
vt 0.600811 0.033000
vt 0.149189 0.033000
vt 0.075293 0.033000
vt 0.375000 0.033000
vt 0.297967 0.033000
vt 0.526661 0.033000
vt 0.000879 0.033000
vt 0.875000 0.034136
vt 0.223339 0.033000
vt 0.452033 0.033000
vt 0.953690 0.079568
vt 0.749121 0.033000
vt 0.965864 0.125000
vt 0.075293 0.968150
vt 0.000879 0.968150
vt 0.000879 0.875000
vt 0.075293 0.875000
vt 0.600811 0.968150
vt 0.526661 0.968150
vt 0.526661 0.875000
vt 0.600811 0.875000
vt 0.375000 0.968150
vt 0.297967 0.968150
vt 0.297967 0.875000
vt 0.375000 0.875000
vt 0.149189 0.968150
vt 0.149189 0.875000
vt 0.674707 0.968150
vt 0.674707 0.875000
vt 0.452033 0.968150
vt 0.452033 0.875000
vt 0.223339 0.968150
vt 0.223339 0.875000
vt 0.749121 0.968150
vt 0.749121 0.875000
vt 0.829568 0.046310
vt 0.149189 0.781850
vt 0.223339 0.781850
vt 0.674707 0.781850
vt 0.749121 0.781850
vt 0.796309 0.079568
vt 0.452033 0.781850
vt 0.526661 0.781850
vt 0.297967 0.781850
vt 0.953690 0.170432
vt 0.000879 0.781850
vt 0.075293 0.781850
vt 0.600811 0.781850
vt 0.375000 0.781850
vt 0.600811 0.033000
vt 0.674707 0.033000
vt 0.674707 0.125000
vt 0.600811 0.125000
vt 0.075293 0.033000
vt 0.149189 0.033000
vt 0.149189 0.125000
vt 0.075293 0.125000
vt 0.297967 0.033000
vt 0.375000 0.033000
vt 0.375000 0.125000
vt 0.297968 0.125000
vt 0.526661 0.033000
vt 0.526661 0.125000
vt 0.000879 0.033000
vt 0.000879 0.125000
vt 0.784136 0.125000
vt 0.223339 0.033000
vt 0.223339 0.125000
vt 0.452033 0.033000
vt 0.452033 0.125000
vt 0.920432 0.203690
vt 0.749121 0.033000
vt 0.749121 0.125000
vt 0.526661 0.217000
vt 0.452033 0.217000
vt 0.875000 0.215864
vt 0.749121 0.217000
vt 0.674707 0.217000
vt 0.223339 0.217000
vt 0.149189 0.217000
vt 0.375000 0.217000
vt 0.600811 0.217000
vt 0.075293 0.217000
vt 0.297968 0.217000
vt 0.000879 0.217000
vt 0.796309 0.170432
vt 0.526661 0.531850
vt 0.600811 0.531850
vt 0.600811 0.625000
vt 0.526661 0.625000
vt 0.000879 0.531850
vt 0.075293 0.531850
vt 0.075293 0.625000
vt 0.000879 0.625000
vt 0.829568 0.203690
vt 0.223339 0.531850
vt 0.297967 0.531850
vt 0.297967 0.625000
vt 0.223339 0.625000
vt 0.452033 0.531850
vt 0.452033 0.625000
vt 0.829568 0.203690
vt 0.674707 0.531850
vt 0.749121 0.531850
vt 0.749121 0.625000
vt 0.674707 0.625000
vt 0.149189 0.531850
vt 0.149189 0.625000
vt 0.375000 0.531850
vt 0.375000 0.625000
vt 0.452033 0.718150
vt 0.375000 0.718150
vt 0.674707 0.718150
vt 0.600811 0.718150
vt 0.149189 0.718150
vt 0.075293 0.718150
vt 0.297967 0.718150
vt 0.526661 0.718150
vt 0.000879 0.718150
vt 0.875000 0.215864
vt 0.223339 0.718150
vt 0.796309 0.170432
vt 0.749121 0.718150
vt 0.452033 0.033000
vt 0.526661 0.033000
vt 0.526661 0.125000
vt 0.452033 0.125000
vt 0.784136 0.125000
vt 0.674707 0.033000
vt 0.749121 0.033000
vt 0.749121 0.125000
vt 0.674707 0.125000
vt 0.149189 0.033000
vt 0.223339 0.033000
vt 0.223339 0.125000
vt 0.149189 0.125000
vt 0.375000 0.033000
vt 0.375000 0.125000
vt 0.600811 0.033000
vt 0.600811 0.125000
vt 0.075293 0.033000
vt 0.075293 0.125000
vt 0.297967 0.033000
vt 0.297968 0.125000
vt 0.000879 0.033000
vt 0.000879 0.125000
vt 0.920432 0.203690
vt 0.375000 0.217000
vt 0.297968 0.217000
vt 0.600811 0.217000
vt 0.526661 0.217000
vt 0.075293 0.217000
vt 0.000879 0.217000
vt 0.953690 0.170432
vt 0.223339 0.217000
vt 0.452033 0.217000
vt 0.796309 0.079568
vt 0.749121 0.217000
vt 0.674707 0.217000
vt 0.149189 0.217000
vt 0.375000 0.468150
vt 0.297967 0.468150
vt 0.149189 0.468150
vt 0.075293 0.468150
vt 0.674707 0.468150
vt 0.600811 0.468150
vt 0.452033 0.468150
vt 0.223339 0.468150
vt 0.749121 0.468150
vt 0.526661 0.468150
vt 0.000879 0.468150
vn 0.0000 1.0000 0.0000
vn 0.0000 0.9673 0.2536
vn 0.4836 0.8377 0.2536
vn 0.5000 0.8660 0.0000
vn 0.0000 0.7176 0.6964
vn 0.0000 0.5159 0.8566
vn 0.2579 0.4468 0.8566
vn 0.3588 0.6214 0.6964
vn 0.0000 0.5159 -0.8566
vn 0.0000 0.7176 -0.6964
vn 0.3588 0.6214 -0.6964
vn 0.2579 0.4468 -0.8566
vn 0.0000 0.9673 -0.2536
vn 0.4836 0.8377 -0.2536
vn 0.0000 0.8712 0.4909
vn 0.4356 0.7545 0.4909
vn 0.0000 0.2788 -0.9603
vn 0.1394 0.2415 -0.9603
vn 0.0000 0.2788 0.9603
vn 0.0000 0.0000 1.0000
vn 0.1394 0.2415 0.9603
vn 0.0000 0.8712 -0.4909
vn 0.4356 0.7545 -0.4909
vn 0.0000 0.0000 -1.0000
vn 0.4468 0.2579 -0.8566
vn 0.2415 0.1394 -0.9603
vn 0.2415 0.1394 0.9603
vn 0.8377 0.4836 -0.2536
vn 0.7545 0.4356 -0.4909
vn 0.7545 0.4356 0.4909
vn 0.8377 0.4836 0.2536
vn 0.4468 0.2579 0.8566
vn 0.6214 0.3588 -0.6964
vn 0.8660 0.5000 0.0000
vn 0.6214 0.3588 0.6964
vn 0.5159 0.0000 0.8566
vn 0.7176 0.0000 0.6964
vn 0.7176 0.0000 -0.6964
vn 0.5159 0.0000 -0.8566
vn 1.0000 0.0000 0.0000
vn 0.9673 0.0000 -0.2536
vn 0.8712 0.0000 0.4909
vn 0.2788 0.0000 -0.9603
vn 0.2788 0.0000 0.9603
vn 0.8712 0.0000 -0.4909
vn 0.9673 0.0000 0.2536
vn 0.2415 -0.1394 -0.9603
vn 0.2415 -0.1394 0.9603
vn 0.4468 -0.2579 0.8566
vn 0.7545 -0.4356 -0.4909
vn 0.6214 -0.3588 -0.6964
vn 0.8377 -0.4836 0.2536
vn 0.8660 -0.5000 0.0000
vn 0.6214 -0.3588 0.6964
vn 0.4468 -0.2579 -0.8566
vn 0.8377 -0.4836 -0.2536
vn 0.7545 -0.4356 0.4909
vn 0.3588 -0.6214 0.6964
vn 0.4356 -0.7545 0.4909
vn 0.2579 -0.4468 -0.8566
vn 0.1394 -0.2415 -0.9603
vn 0.1394 -0.2415 0.9603
vn 0.4836 -0.8377 -0.2536
vn 0.4356 -0.7545 -0.4909
vn 0.4836 -0.8377 0.2536
vn 0.2579 -0.4468 0.8566
vn 0.3588 -0.6214 -0.6964
vn 0.5000 -0.8660 0.0000
vn 0.0000 -0.5159 0.8566
vn 0.0000 -0.7176 0.6964
vn 0.0000 -0.7176 -0.6964
vn 0.0000 -0.5159 -0.8566
vn 0.0000 -1.0000 0.0000
vn 0.0000 -0.9673 -0.2536
vn 0.0000 -0.8712 0.4909
vn 0.0000 -0.2788 -0.9603
vn 0.0000 -0.2788 0.9603
vn 0.0000 -0.8712 -0.4909
vn 0.0000 -0.9673 0.2536
vn -0.4356 -0.7545 0.4909
vn -0.4836 -0.8377 0.2536
vn -0.1394 -0.2415 -0.9603
vn -0.1394 -0.2415 0.9603
vn -0.2579 -0.4468 0.8566
vn -0.4356 -0.7545 -0.4909
vn -0.3588 -0.6214 -0.6964
vn -0.5000 -0.8660 0.0000
vn -0.3588 -0.6214 0.6964
vn -0.2579 -0.4468 -0.8566
vn -0.4836 -0.8377 -0.2536
vn -0.6214 -0.3588 0.6964
vn -0.7545 -0.4356 0.4909
vn -0.4468 -0.2579 -0.8566
vn -0.2415 -0.1394 -0.9603
vn -0.2415 -0.1394 0.9603
vn -0.8377 -0.4836 -0.2536
vn -0.7545 -0.4356 -0.4909
vn -0.8377 -0.4836 0.2536
vn -0.4468 -0.2579 0.8566
vn -0.6214 -0.3588 -0.6964
vn -0.8660 -0.5000 0.0000
vn -0.9673 0.0000 0.2536
vn -1.0000 0.0000 0.0000
vn -0.5159 0.0000 0.8566
vn -0.7176 0.0000 0.6964
vn -0.7176 0.0000 -0.6964
vn -0.5159 0.0000 -0.8566
vn -0.9673 0.0000 -0.2536
vn -0.8712 0.0000 0.4909
vn -0.2788 0.0000 -0.9603
vn -0.2788 0.0000 0.9603
vn -0.8712 0.0000 -0.4909
vn -0.7545 0.4356 0.4909
vn -0.8377 0.4836 0.2536
vn -0.2415 0.1394 -0.9603
vn -0.2415 0.1394 0.9603
vn -0.4468 0.2579 0.8566
vn -0.7545 0.4356 -0.4909
vn -0.6214 0.3588 -0.6964
vn -0.8660 0.5000 0.0000
vn -0.6214 0.3588 0.6964
vn -0.4468 0.2579 -0.8566
vn -0.8377 0.4836 -0.2536
vn -0.5000 0.8660 0.0000
vn -0.4836 0.8377 -0.2536
vn -0.3588 0.6214 0.6964
vn -0.4356 0.7545 0.4909
vn -0.2579 0.4468 -0.8566
vn -0.1394 0.2415 -0.9603
vn -0.1394 0.2415 0.9603
vn -0.4356 0.7545 -0.4909
vn -0.4836 0.8377 0.2536
vn -0.2579 0.4468 0.8566
vn -0.3588 0.6214 -0.6964
usemtl Ball
s 1
f 6/1/1 5/2/2 14/3/3 15/4/4
f 3/5/5 2/6/6 11/7/7 12/8/8
f 134/9/9 8/10/10 18/11/11 19/12/12
f 7/13/13 6/1/1 15/4/4 16/14/14
f 4/15/15 3/5/5 12/8/8 13/16/16
f 9/17/17 134/9/9 19/12/12 20/18/18
f 1/19/19 76/20/20 10/21/21
f 133/22/22 7/13/13 16/14/14 17/23/23
f 5/2/2 4/15/15 13/16/16 14/3/3
f 110/24/24 9/25/17 20/26/18
f 2/6/6 1/27/19 10/28/21 11/7/7
f 8/10/10 133/22/22 17/23/23 18/11/11
f 20/29/18 19/30/12 30/31/25 31/32/26
f 10/21/21 76/20/20 21/33/27
f 17/34/23 16/35/14 27/36/28 28/37/29
f 14/38/3 13/39/16 24/40/30 25/41/31
f 110/24/24 20/26/18 31/42/26
f 11/43/7 10/44/21 21/45/27 22/46/32
f 18/47/11 17/34/23 28/37/29 29/48/33
f 15/49/4 14/38/3 25/41/31 26/50/34
f 12/51/8 11/43/7 22/46/32 23/52/35
f 19/30/12 18/47/11 29/48/33 30/31/25
f 16/35/14 15/49/4 26/50/34 27/36/28
f 13/39/16 12/51/8 23/52/35 24/40/30
f 23/52/35 22/46/32 33/53/36 34/54/37
f 30/31/25 29/48/33 40/55/38 41/56/39
f 27/36/28 26/50/34 37/57/40 38/58/41
f 24/40/30 23/52/35 34/54/37 35/59/42
f 31/32/26 30/31/25 41/56/39 42/60/43
f 21/33/27 76/20/20 32/61/44
f 28/37/29 27/36/28 38/58/41 39/62/45
f 25/41/31 24/40/30 35/59/42 36/63/46
f 110/24/24 31/42/26 42/64/43
f 22/46/32 21/45/27 32/65/44 33/53/36
f 29/48/33 28/37/29 39/62/45 40/55/38
f 26/50/34 25/41/31 36/63/46 37/57/40
f 110/24/24 42/64/43 53/66/47
f 33/67/36 32/68/44 43/69/48 44/70/49
f 40/71/38 39/72/45 50/73/50 51/74/51
f 37/75/40 36/76/46 47/77/52 48/78/53
f 34/79/37 33/67/36 44/70/49 45/80/54
f 41/81/39 40/71/38 51/74/51 52/82/55
f 38/83/41 37/75/40 48/78/53 49/84/56
f 35/85/42 34/79/37 45/80/54 46/86/57
f 42/87/43 41/81/39 52/82/55 53/88/47
f 32/61/44 76/20/20 43/89/48
f 39/72/45 38/83/41 49/84/56 50/73/50
f 36/76/46 35/85/42 46/86/57 47/77/52
f 46/86/57 45/80/54 56/90/58 57/91/59
f 53/88/47 52/82/55 63/92/60 64/93/61
f 43/89/48 76/20/20 54/94/62
f 50/73/50 49/84/56 60/95/63 61/96/64
f 47/77/52 46/86/57 57/91/59 58/97/65
f 110/24/24 53/66/47 64/98/61
f 44/70/49 43/69/48 54/99/62 55/100/66
f 51/74/51 50/73/50 61/96/64 62/101/67
f 48/78/53 47/77/52 58/97/65 59/102/68
f 45/80/54 44/70/49 55/100/66 56/90/58
f 52/82/55 51/74/51 62/101/67 63/92/60
f 49/84/56 48/78/53 59/102/68 60/95/63
f 56/103/58 55/104/66 66/105/69 67/106/70
f 63/107/60 62/108/67 73/109/71 74/110/72
f 60/111/63 59/112/68 70/113/73 71/114/74
f 57/115/59 56/103/58 67/106/70 68/116/75
f 64/117/61 63/107/60 74/110/72 75/118/76
f 54/94/62 76/20/20 65/119/77
f 61/120/64 60/111/63 71/114/74 72/121/78
f 58/122/65 57/115/59 68/116/75 69/123/79
f 110/24/24 64/98/61 75/124/76
f 55/104/66 54/125/62 65/126/77 66/105/69
f 62/108/67 61/120/64 72/121/78 73/109/71
f 59/112/68 58/122/65 69/123/79 70/113/73
f 69/123/79 68/116/75 80/127/80 81/128/81
f 110/24/24 75/124/76 87/129/82
f 66/105/69 65/126/77 77/130/83 78/131/84
f 73/109/71 72/121/78 84/132/85 85/133/86
f 70/113/73 69/123/79 81/128/81 82/134/87
f 67/106/70 66/105/69 78/131/84 79/135/88
f 74/110/72 73/109/71 85/133/86 86/136/89
f 71/114/74 70/113/73 82/134/87 83/137/90
f 68/116/75 67/106/70 79/135/88 80/127/80
f 75/118/76 74/110/72 86/136/89 87/138/82
f 65/119/77 76/20/20 77/139/83
f 72/121/78 71/114/74 83/137/90 84/132/85
f 80/140/80 79/141/88 90/142/91 91/143/92
f 87/144/82 86/145/89 97/146/93 98/147/94
f 77/139/83 76/20/20 88/148/95
f 84/149/85 83/150/90 94/151/96 95/152/97
f 81/153/81 80/140/80 91/143/92 92/154/98
f 110/24/24 87/129/82 98/155/94
f 78/156/84 77/157/83 88/158/95 89/159/99
f 85/160/86 84/149/85 95/152/97 96/161/100
f 82/162/87 81/153/81 92/154/98 93/163/101
f 79/141/88 78/156/84 89/159/99 90/142/91
f 86/145/89 85/160/86 96/161/100 97/146/93
f 83/150/90 82/162/87 93/163/101 94/151/96
f 93/163/101 92/154/98 103/164/102 104/165/103
f 90/142/91 89/159/99 100/166/104 101/167/105
f 97/146/93 96/161/100 107/168/106 108/169/107
f 94/151/96 93/163/101 104/165/103 105/170/108
f 91/143/92 90/142/91 101/167/105 102/171/109
f 98/147/94 97/146/93 108/169/107 109/172/110
f 88/148/95 76/20/20 99/173/111
f 95/152/97 94/151/96 105/170/108 106/174/112
f 92/154/98 91/143/92 102/171/109 103/164/102
f 110/24/24 98/155/94 109/175/110
f 89/159/99 88/158/95 99/176/111 100/166/104
f 96/161/100 95/152/97 106/174/112 107/168/106
f 103/177/102 102/178/109 114/179/113 115/180/114
f 110/24/24 109/175/110 121/181/115
f 100/182/104 99/183/111 111/184/116 112/185/117
f 107/186/106 106/187/112 118/188/118 119/189/119
f 104/190/103 103/177/102 115/180/114 116/191/120
f 101/192/105 100/182/104 112/185/117 113/193/121
f 108/194/107 107/186/106 119/189/119 120/195/122
f 105/196/108 104/190/103 116/191/120 117/197/123
f 102/178/109 101/192/105 113/193/121 114/179/113
f 109/198/110 108/194/107 120/195/122 121/199/115
f 99/173/111 76/20/20 111/200/116
f 106/187/112 105/196/108 117/197/123 118/188/118
f 117/197/123 116/191/120 127/201/124 128/202/125
f 114/179/113 113/193/121 124/203/126 125/204/127
f 121/199/115 120/195/122 131/205/128 132/206/129
f 111/200/116 76/20/20 122/207/130
f 118/188/118 117/197/123 128/202/125 129/208/131
f 115/180/114 114/179/113 125/204/127 126/209/132
f 110/24/24 121/181/115 132/210/129
f 112/185/117 111/184/116 122/211/130 123/212/133
f 119/189/119 118/188/118 129/208/131 130/213/134
f 116/191/120 115/180/114 126/209/132 127/201/124
f 113/193/121 112/185/117 123/212/133 124/203/126
f 120/195/122 119/189/119 130/213/134 131/205/128
f 127/214/124 126/215/132 5/2/2 6/1/1
f 124/216/126 123/217/133 2/6/6 3/5/5
f 131/218/128 130/219/134 8/10/10 134/9/9
f 128/220/125 127/214/124 6/1/1 7/13/13
f 125/221/127 124/216/126 3/5/5 4/15/15
f 132/222/129 131/218/128 134/9/9 9/17/17
f 122/207/130 76/20/20 1/19/19
f 129/223/131 128/220/125 7/13/13 133/22/22
f 126/215/132 125/221/127 4/15/15 5/2/2
f 110/24/24 132/210/129 9/25/17
f 123/217/133 122/224/130 1/27/19 2/6/6
f 130/219/134 129/223/131 133/22/22 8/10/10
