# Blender v2.93.2 OBJ File: 'palmtree.blend'
# www.blender.org
mtllib leaf.mtl
o Leaf_Plane.001
v -0.019223 -0.005241 -0.002958
v -0.082405 -0.009480 0.068951
v -0.019223 0.005242 -0.002958
v -0.082405 0.009480 0.068951
v -0.025414 -0.009515 0.016850
v -0.026316 0.000000 -0.007466
v -0.084157 0.000000 0.066844
v -0.025414 0.009515 0.016850
v -0.021066 0.000000 -0.003649
v -0.039743 0.000000 0.004441
v -0.095261 0.000000 0.053630
v -0.027783 0.000000 0.014302
v -0.170702 0.055254 0.129882
v -0.173838 0.000000 0.122922
v -0.181863 0.000000 0.103630
v -0.170702 -0.055254 0.129882
v -0.299721 0.122693 0.176587
v -0.303530 0.000000 0.156223
v -0.307951 0.000000 0.135345
v -0.299721 -0.122692 0.176587
v -0.428689 0.172895 0.180923
v -0.428120 0.000000 0.147007
v -0.427951 0.000000 0.135345
v -0.404078 -0.163315 0.180095
v -0.561551 0.194111 0.147154
v -0.548844 0.000000 0.114978
v -0.543863 0.000000 0.104287
v -0.561551 -0.194111 0.147154
v -0.683793 0.188790 0.066976
v -0.649993 0.000000 0.048856
v -0.647786 0.000000 0.044287
v -0.672386 -0.191936 0.078844
v -0.763213 0.166885 -0.015659
v -0.735694 0.000000 -0.037821
v -0.732638 0.000000 -0.040566
v -0.763213 -0.166885 -0.015659
v -0.825225 0.112253 -0.131638
v -0.803514 0.000000 -0.139418
v -0.792639 0.000000 -0.144490
v -0.825225 -0.112253 -0.131638
v -0.830882 0.040356 -0.223657
v -0.828349 0.000000 -0.236807
v -0.830882 -0.040355 -0.223657
v -0.659478 0.192190 0.086799
v -0.444217 -0.175375 0.176976
vt 0.750000 0.937500
vt 0.750000 0.875000
vt 1.000000 0.875000
vt 0.500000 0.967500
vt 0.250000 0.967500
vt 0.500000 0.937500
vt 0.250000 1.000000
vt 1.000000 1.000000
vt 0.750000 1.000000
vt 1.000000 0.967500
vt 1.000000 0.937500
vt 0.750000 0.967500
vt 0.500000 1.000000
vt 0.000000 0.967500
vt 0.250000 0.937500
vt 0.000000 0.937500
vt 0.000000 0.875000
vt 0.000000 0.750000
vt 0.250000 0.875000
vt 0.500000 0.875000
vt 0.250000 0.750000
vt 0.250000 0.625000
vt 0.500000 0.625000
vt 0.500000 0.750000
vt 0.750000 0.750000
vt 1.000000 0.750000
vt 0.500000 0.625000
vt 0.500000 0.500000
vt 0.750000 0.625000
vt 1.000000 0.625000
vt 0.000000 0.625000
vt 0.000000 0.500000
vt 0.250000 0.500000
vt 0.750000 0.500000
vt 1.000000 0.500000
vt 0.750000 0.374366
vt 0.750000 0.250000
vt 1.000000 0.250000
vt 1.000000 0.374366
vt 0.500000 0.374366
vt 0.000000 0.374366
vt 0.500000 0.250000
vt 0.500000 0.125000
vt 0.000000 0.374366
vt 0.000000 0.250000
vt 0.250000 0.374366
vt 0.250000 0.250000
vt 0.000000 0.125000
vt 0.250000 0.125000
vt 0.750000 0.125000
vt 1.000000 0.125000
vt 0.500000 0.000000
vt 1.000000 0.000000
vt 0.750000 0.000000
vt 0.000000 0.000000
vt 1.000000 0.374366
vt 0.250000 0.000000
vt 0.000000 1.000000
vt 0.750000 0.592250
vt 0.750000 0.656250
vt 0.750000 0.342675
vt 0.750000 0.405625
vn -0.4450 0.4561 -0.7707
vn 0.6338 0.3435 0.6931
vn 0.8902 0.3109 0.3331
vn -0.4257 0.8479 -0.3160
vn -0.2841 0.9036 -0.3207
vn -0.2841 -0.9036 -0.3207
vn -0.4257 -0.8479 -0.3160
vn 0.8902 -0.3109 0.3331
vn 0.6551 -0.2773 0.7028
vn 0.2739 -0.1355 0.9522
vn 0.0481 -0.8308 -0.5544
vn 0.4470 -0.2721 0.8522
vn 0.5253 0.1356 0.8400
vn -0.0725 0.1878 0.9795
vn 0.2739 0.1355 0.9522
vn -0.2308 0.3239 -0.9175
vn -0.0917 -0.4424 -0.8921
vn 0.2755 -0.2461 -0.9293
vn -0.0000 0.2549 -0.9670
vn 0.0896 -0.3119 -0.9459
vn -0.0302 -0.1627 0.9862
vn -0.2698 -0.1862 0.9447
vn -0.2525 0.1743 0.9518
vn 0.2518 0.2305 -0.9399
vn 0.6883 0.2288 -0.6883
vn 0.4881 0.2167 -0.8454
vn 0.5074 -0.2297 -0.8306
vn -0.5143 -0.1729 0.8400
vn 0.8095 -0.2290 -0.5407
vn 0.6754 -0.2136 -0.7058
vn -0.6822 -0.1899 0.7060
vn -0.6958 0.2061 0.6880
vn -0.8192 -0.2062 0.5351
vn -0.8157 0.1955 0.5445
vn 0.8275 0.2949 -0.4778
vn -0.9560 0.1998 0.2149
vn 0.9103 0.2972 -0.2882
vn 0.9185 -0.1734 -0.3553
vn -0.9560 -0.1998 0.2149
vn 0.6754 0.2136 -0.7058
vn 0.8095 0.2290 -0.5407
vn 0.9185 0.1734 -0.3553
vn 0.5074 0.2297 -0.8306
vn 0.2755 0.2461 -0.9293
vn -0.6958 -0.2061 0.6880
vn -0.8157 -0.1955 0.5445
vn -0.9595 -0.1399 0.2447
vn -0.5373 -0.1888 0.8220
vn -0.2525 -0.1743 0.9518
vn -0.0724 -0.1922 0.9787
vn 0.2452 -0.1661 0.9551
vn 0.5253 -0.1356 0.8400
vn 0.6338 -0.3435 0.6931
vn 0.0896 0.3119 -0.9459
vn -0.0917 0.4424 -0.8921
vn 0.0481 0.8308 -0.5544
vn -0.3046 0.8925 -0.3326
vn -0.5371 0.1910 0.8216
vn 0.2452 0.1661 0.9551
vn -0.5143 0.1729 0.8400
vn -0.2698 0.1862 0.9447
vn -0.0302 0.1627 0.9862
vn -0.6822 0.1899 0.7060
vn -0.9595 0.1399 0.2447
vn -0.8192 0.2062 0.5351
vn 0.9103 -0.2972 -0.2882
vn 0.8275 -0.2949 -0.4778
vn -0.0000 -0.2643 -0.9644
vn 0.6883 -0.2288 -0.6883
vn 0.4883 -0.2149 -0.8458
vn 0.2518 -0.2305 -0.9399
vn 0.4470 0.2721 0.8522
vn 0.6551 0.2773 0.7028
vn -0.2997 -0.8922 -0.3380
vn 0.8693 -0.3516 0.3475
vn 0.8693 0.3516 0.3475
vn -0.2997 0.8922 -0.3380
vn -0.3046 -0.8925 -0.3326
vn -0.4450 -0.4561 -0.7707
vn -0.2308 -0.3239 -0.9175
vn -0.9888 -0.1485 -0.0143
vn 0.9959 -0.0889 0.0144
vn -0.8997 0.0414 -0.4346
vn 0.8941 0.1186 0.4319
usemtl Leaf
s off
f 11/1/1 15/2/1 13/3/1
f 5/4/2 12/5/2 2/6/2
f 5/4/3 9/7/3 12/5/3
f 3/8/4 6/9/4 8/10/4
f 11/1/5 4/11/5 10/12/5
f 2/6/6 11/1/6 10/12/6
f 1/13/7 5/4/7 6/9/7
f 9/7/8 8/14/8 12/5/8
f 7/15/9 12/5/9 4/16/9
f 13/17/10 17/18/10 14/19/10
f 2/6/11 16/20/11 11/1/11
f 4/16/12 13/17/12 7/15/12
f 7/15/13 14/19/13 16/20/13
f 18/21/14 22/22/14 24/23/14
f 16/20/15 14/19/15 20/24/15
f 15/2/16 19/25/16 17/26/16
f 15/2/17 16/20/17 20/24/17
f 45/27/18 28/28/18 23/29/18
f 19/25/19 23/29/19 21/30/19
f 20/24/20 24/23/20 19/25/20
f 17/18/21 21/31/21 18/21/21
f 21/31/22 25/32/22 22/22/22
f 22/22/23 26/33/23 28/28/23
f 23/29/24 27/34/24 25/35/24
f 31/36/25 35/37/25 33/38/25
f 27/34/26 31/36/26 44/39/26
f 28/28/27 32/40/27 27/34/27
f 25/32/28 44/41/28 26/33/28
f 36/42/29 40/43/29 35/37/29
f 32/40/30 36/42/30 31/36/30
f 29/44/31 33/45/31 30/46/31
f 30/46/32 34/47/32 36/42/32
f 33/45/33 37/48/33 34/47/33
f 34/47/34 38/49/34 40/43/34
f 35/37/35 39/50/35 37/51/35
f 40/43/36 38/49/36 43/52/36
f 37/51/37 39/50/37 41/53/37
f 39/50/38 43/52/38 42/54/38
f 38/49/39 37/48/39 41/55/39
f 33/38/40 29/56/40 31/36/40
f 37/51/41 33/38/41 35/37/41
f 41/53/42 39/50/42 42/54/42
f 44/39/43 25/35/43 27/34/43
f 25/35/44 21/30/44 23/29/44
f 30/46/45 33/45/45 34/47/45
f 34/47/46 37/48/46 38/49/46
f 41/55/47 42/57/47 38/49/47
f 26/33/48 44/41/48 30/46/48
f 22/22/49 25/32/49 26/33/49
f 18/21/50 21/31/50 22/22/50
f 14/19/51 17/18/51 18/21/51
f 7/15/52 13/17/52 14/19/52
f 4/16/53 12/5/53 8/14/53
f 21/30/54 17/26/54 19/25/54
f 17/26/55 13/3/55 15/2/55
f 13/3/56 4/11/56 11/1/56
f 10/12/57 4/11/57 8/10/57
f 30/46/58 32/40/58 26/33/58
f 20/24/59 14/19/59 18/21/59
f 26/33/60 32/40/60 28/28/60
f 28/28/61 45/27/61 22/22/61
f 24/23/62 20/24/62 18/21/62
f 36/42/63 32/40/63 30/46/63
f 43/52/64 38/49/64 42/57/64
f 40/43/65 36/42/65 34/47/65
f 43/52/66 39/50/66 40/43/66
f 35/37/67 40/43/67 39/50/67
f 19/25/68 24/23/68 23/29/68
f 31/36/69 36/42/69 35/37/69
f 27/34/70 32/40/70 31/36/70
f 23/29/71 28/28/71 27/34/71
f 16/20/72 2/6/72 7/15/72
f 2/6/73 12/5/73 7/15/73
f 6/9/74 5/4/74 10/12/74
f 8/14/75 9/7/75 3/58/75
f 9/7/76 5/4/76 1/13/76
f 8/10/77 6/9/77 10/12/77
f 10/12/78 5/4/78 2/6/78
f 11/1/79 16/20/79 15/2/79
f 20/24/80 19/25/80 15/2/80
f 24/23/81 22/59/81 23/29/81
f 45/27/82 23/29/82 22/60/82
f 44/39/83 31/36/83 30/61/83
f 31/36/84 29/56/84 30/62/84
