# Blender v2.93.2 OBJ File: 'palmtree.blend'
# www.blender.org
mtllib sandbin.mtl
o Bin_Cube.001
v 1.776961 1.838236 0.750000
v 1.838236 1.776961 0.750000
v 1.838236 -1.776961 0.750000
v 1.776961 -1.838236 0.750000
v -1.838235 1.776961 0.750000
v -1.776961 1.838236 0.750000
v -1.776961 -1.838236 0.750000
v -1.838235 -1.776961 0.750000
v 1.613509 1.669147 0.930000
v 1.669147 1.613509 0.930000
v 1.669147 -1.613509 0.930000
v 1.613509 -1.669147 0.930000
v -1.669147 1.613509 0.930000
v -1.613509 1.669147 0.930000
v -1.613509 -1.669147 0.930000
v -1.669147 -1.613509 0.930000
v 1.462453 1.512883 0.000000
v 1.512883 1.462453 0.000000
v 1.512883 -1.462453 0.000000
v 1.462453 -1.512883 0.000000
v -1.512883 1.462453 0.000000
v -1.462453 1.512883 0.000000
v -1.462453 -1.512883 0.000000
v -1.512883 -1.462453 0.000000
v -1.838235 0.000000 0.750000
v -1.669147 0.000000 0.930000
v -1.512883 0.000000 0.000000
v 1.838236 0.000000 0.750000
v 1.669147 0.000000 0.930000
v 1.512883 0.000000 0.000000
v 0.000000 1.838236 0.750000
v 0.000000 1.669147 0.930000
v 0.000000 1.512883 0.000000
v 0.000000 -1.838236 0.750000
v 0.000000 -1.669147 0.930000
v 0.000000 -1.512883 0.000000
v 1.450000 1.500000 0.050000
v 1.500000 1.450000 0.050000
v -1.500000 1.450000 0.050000
v -1.450000 1.500000 0.050000
v -1.450000 -1.500000 0.050000
v -1.500000 -1.450000 0.050000
v 1.500000 -1.450000 0.050000
v 1.450000 -1.500000 0.050000
v 1.500000 0.000000 0.050000
v 0.000000 1.500000 0.050000
v -1.500000 0.000000 0.050000
v 0.000000 -1.500000 0.050000
v 1.757283 1.817879 0.925219
v 1.733704 1.793487 0.950000
v 1.793487 1.733704 0.950000
v 1.817879 1.757283 0.925219
v 1.817879 -1.757283 0.925219
v 1.793487 -1.733704 0.950000
v 1.733704 -1.793487 0.950000
v 1.757283 -1.817879 0.925219
v -1.817879 1.757283 0.925219
v -1.793486 1.733704 0.950000
v -1.733703 1.793487 0.950000
v -1.757283 1.817879 0.925219
v -1.757283 -1.817879 0.925219
v -1.733703 -1.793487 0.950000
v -1.793486 -1.733704 0.950000
v -1.817879 -1.757283 0.925219
v -1.817879 0.000000 0.925217
v -1.793352 0.000000 0.950000
v 1.793353 0.000000 0.950000
v 1.817880 0.000000 0.925217
v 0.000000 1.793352 0.950000
v 0.000000 1.817879 0.925217
v 0.000000 -1.817879 0.925217
v 0.000000 -1.793352 0.950000
v 1.615796 1.671514 0.950000
v 1.591044 1.645908 0.925445
v 1.645908 1.591044 0.925445
v 1.671514 1.615796 0.950000
v 1.671514 -1.615796 0.950000
v 1.645908 -1.591044 0.925445
v 1.591044 -1.645908 0.925445
v 1.615796 -1.671514 0.950000
v -1.671514 1.615796 0.950000
v -1.645908 1.591044 0.925445
v -1.591044 1.645908 0.925445
v -1.615796 1.671514 0.950000
v -1.615796 -1.671514 0.950000
v -1.591044 -1.645908 0.925445
v -1.645908 -1.591044 0.925445
v -1.671514 -1.615796 0.950000
v -1.671648 0.000000 0.950000
v -1.645907 0.000000 0.925441
v 1.645907 0.000000 0.925441
v 1.671648 0.000000 0.950000
v 0.000000 1.645907 0.925441
v 0.000000 1.671648 0.950000
v 0.000000 -1.671648 0.950000
v 0.000000 -1.645907 0.925441
vt 0.000000 0.847830
vt 0.937500 0.847780
vt 0.937500 0.903167
vt 0.000000 0.903095
vt 0.000000 0.847832
vt 0.937500 0.847780
vt 0.937500 0.903167
vt 0.000000 0.903096
vt 0.000000 0.847831
vt 0.937500 0.847780
vt 0.937500 0.903167
vt 0.000000 0.903096
vt 0.000000 0.831675
vt 0.000000 0.499982
vt 0.937500 0.499976
vt 0.937500 0.831670
vt 0.000000 0.831676
vt 0.000000 0.499983
vt 0.937500 0.499977
vt 0.937500 0.831670
vt 0.000000 0.831676
vt 0.000000 0.499983
vt 0.937500 0.499976
vt 0.937500 0.831670
vt 0.000000 0.831675
vt 0.000000 0.499982
vt 0.937500 0.499976
vt 0.937500 0.831670
vt 0.000000 0.847830
vt 0.937500 0.847780
vt 0.937500 0.903167
vt 0.000000 0.903095
vt 0.000000 0.918926
vt 0.937500 0.918957
vt 0.937500 0.999987
vt 0.000000 0.999955
vt 0.000000 0.918927
vt 0.937500 0.918957
vt 0.937500 0.999987
vt 0.000000 0.999956
vt 0.000000 0.918929
vt 0.937500 0.918956
vt 0.937500 0.999986
vt 0.000000 0.999957
vt 1.000000 0.499985
vt 1.000000 0.831670
vt 1.000000 0.847783
vt 1.000000 0.903159
vt 1.000000 0.847783
vt 1.000000 0.903159
vt 0.000000 0.918928
vt 0.937500 0.918956
vt 0.937500 0.999986
vt 0.000000 0.999956
vt 1.000000 0.499984
vt 1.000000 0.831670
vt 1.000000 0.847783
vt 1.000000 0.903159
vt 0.937500 0.831670
vt 0.937500 0.499976
vt 0.937500 0.831670
vt 0.937500 0.499976
vt 1.000000 0.499986
vt 1.000000 0.831670
vt 0.937500 0.831670
vt 0.937500 0.499976
vt 1.000000 0.499985
vt 1.000000 0.831670
vt 0.937500 0.831670
vt 0.937500 0.499977
vt 0.000000 0.499983
vt 0.937500 0.499983
vt 0.937500 -0.000017
vt 0.000000 -0.000018
vt 0.000000 0.499983
vt 0.937500 0.499983
vt 0.937500 -0.000017
vt 0.000000 -0.000018
vt 1.000000 0.499984
vt 0.937500 0.499986
vt 0.937500 -0.000017
vt 1.000000 -0.000017
vt 1.000000 0.499984
vt 0.937500 0.499986
vt 0.937500 -0.000017
vt 1.000000 -0.000017
vt 0.000000 0.499983
vt 0.937500 0.499983
vt 0.937500 -0.000017
vt 0.000000 -0.000018
vt 0.000000 0.499983
vt 0.937500 0.499983
vt 0.937500 -0.000017
vt 0.000000 -0.000018
vt 1.000000 0.499984
vt 0.937500 0.499986
vt 0.937500 -0.000017
vt 1.000000 -0.000017
vt 1.000000 0.499984
vt 0.937500 0.499986
vt 0.937500 -0.000017
vt 1.000000 -0.000017
vt 0.937500 0.918956
vt 0.937500 0.999996
vt 0.937500 0.847781
vt 0.937500 0.903158
vt 1.000000 0.918957
vt 1.000000 1.000000
vt 0.937500 0.918957
vt 0.937500 0.999997
vt 0.937500 0.847781
vt 0.937500 0.903159
vt 1.000000 0.918957
vt 1.000000 1.000000
vt 0.937500 0.918957
vt 0.937500 0.999997
vt 0.937500 0.847782
vt 0.937500 0.903159
vt 1.000000 0.918957
vt 1.000000 1.000000
vt 0.937500 0.918957
vt 0.937500 0.999997
vt 0.937500 0.847781
vt 0.937500 0.903159
vt 1.000000 0.918957
vt 1.000000 0.903159
vt 1.000000 1.000000
vt 1.000000 0.847783
vn 0.0000 -0.3724 0.9281
vn -0.1028 -0.2123 0.9718
vn 0.1170 0.3901 0.9133
vn 0.0000 0.3857 0.9226
vn 0.3724 0.0000 0.9281
vn 0.2123 -0.1028 0.9718
vn -0.3901 0.1170 0.9133
vn -0.3857 0.0000 0.9226
vn 0.0000 0.3724 0.9281
vn 0.1028 0.2123 0.9718
vn -0.1170 -0.3901 0.9133
vn 0.0000 -0.3857 0.9226
vn 0.0000 -0.8840 0.4674
vn 0.0000 -0.9864 0.1644
vn -0.3544 -0.9114 0.2090
vn -0.2849 -0.7665 0.5755
vn 0.8840 0.0000 0.4674
vn 0.9864 0.0000 0.1644
vn 0.9114 -0.3544 0.2090
vn 0.7665 -0.2849 0.5755
vn 0.0000 0.8840 0.4674
vn 0.0000 0.9864 0.1644
vn 0.3544 0.9114 0.2090
vn 0.2849 0.7665 0.5755
vn -0.8840 0.0000 0.4674
vn -0.9864 0.0000 0.1644
vn -0.9114 0.3544 0.2090
vn -0.7665 0.2849 0.5755
vn -0.3724 0.0000 0.9281
vn -0.2123 0.1028 0.9718
vn 0.3901 -0.1170 0.9133
vn 0.3857 0.0000 0.9226
vn 0.0000 -0.9016 0.4325
vn -0.3450 -0.8117 0.4712
vn -0.3907 -0.9083 0.1494
vn 0.0000 -0.9933 0.1154
vn -0.9016 0.0000 0.4325
vn -0.8117 0.3450 0.4712
vn -0.9083 0.3907 0.1494
vn -0.9933 0.0000 0.1154
vn 0.0000 0.9016 0.4325
vn 0.3450 0.8117 0.4712
vn 0.3907 0.9083 0.1494
vn 0.0000 0.9933 0.1154
vn 0.3544 -0.9114 0.2090
vn 0.2849 -0.7665 0.5755
vn -0.1028 0.2123 0.9718
vn 0.1170 -0.3901 0.9133
vn 0.1028 -0.2123 0.9718
vn -0.1170 0.3901 0.9133
vn 0.9016 0.0000 0.4325
vn 0.8117 -0.3450 0.4712
vn 0.9083 -0.3907 0.1494
vn 0.9933 0.0000 0.1154
vn 0.9114 0.3544 0.2090
vn 0.7665 0.2849 0.5755
vn 0.2123 0.1028 0.9718
vn -0.3901 -0.1170 0.9133
vn -0.2849 0.7665 0.5755
vn -0.3544 0.9114 0.2090
vn -0.9114 -0.3544 0.2090
vn -0.7665 -0.2849 0.5755
vn 0.0000 -0.9862 -0.1657
vn -0.3908 -0.8952 -0.2139
vn -0.3541 -0.9112 -0.2106
vn 0.0000 0.9862 -0.1657
vn 0.3908 0.8952 -0.2139
vn 0.3541 0.9112 -0.2106
vn 0.8952 -0.3908 -0.2139
vn 0.3908 -0.8952 -0.2139
vn 0.3541 -0.9112 -0.2106
vn 0.9112 -0.3541 -0.2106
vn -0.8952 0.3908 -0.2139
vn -0.3908 0.8952 -0.2139
vn -0.3541 0.9112 -0.2106
vn -0.9112 0.3541 -0.2106
vn -0.9862 0.0000 -0.1657
vn 0.9862 0.0000 -0.1657
vn -0.8952 -0.3908 -0.2139
vn -0.9112 -0.3541 -0.2106
vn 0.8952 0.3908 -0.2139
vn 0.9112 0.3541 -0.2106
vn -0.8117 -0.3450 0.4712
vn -0.9083 -0.3907 0.1494
vn 0.3450 -0.8117 0.4712
vn 0.3907 -0.9083 0.1494
vn 0.8117 0.3450 0.4712
vn 0.9083 0.3907 0.1494
vn -0.2123 -0.1028 0.9718
vn 0.3901 0.1170 0.9133
vn -0.3450 0.8117 0.4712
vn -0.3907 0.9083 0.1494
usemtl Bin
s 1
f 94/1/1 73/2/2 50/3/3 69/4/4
f 89/5/5 81/6/6 58/7/7 66/8/8
f 95/9/9 85/10/10 62/11/11 72/12/12
f 93/13/13 46/14/14 37/15/15 74/16/16
f 90/17/17 47/18/18 39/19/19 82/20/20
f 96/21/21 48/22/22 41/23/23 86/24/24
f 91/25/25 45/26/26 43/27/27 78/28/28
f 92/29/29 77/30/30 54/31/31 67/32/32
f 71/33/33 61/34/34 7/35/35 34/36/36
f 65/37/37 57/38/38 5/39/39 25/40/40
f 70/41/41 49/42/42 1/43/43 31/44/44
f 40/45/45 83/46/46 82/20/20 39/19/19
f 77/30/30 80/47/47 55/48/48 54/31/31
f 81/6/6 84/49/49 59/50/50 58/7/7
f 68/51/51 53/52/52 3/53/53 28/54/54
f 86/24/24 41/23/23 42/55/55 87/56/56
f 85/10/10 88/57/57 63/58/58 62/11/11
f 79/59/59 44/60/60 48/22/22 96/21/21
f 87/61/56 42/62/55 47/18/18 90/17/17
f 38/63/61 75/64/62 74/16/16 37/15/15
f 75/65/62 38/66/61 45/26/26 91/25/25
f 44/67/60 79/68/59 78/28/28 43/27/27
f 83/69/46 40/70/45 46/14/14 93/13/13
f 35/71/63 15/72/64 23/73/65 36/74/63
f 32/75/66 9/76/67 17/77/68 33/78/66
f 11/79/69 12/80/70 20/81/71 19/82/72
f 13/83/73 14/84/74 22/85/75 21/86/76
f 26/87/77 13/88/73 21/89/76 27/90/77
f 29/91/78 11/92/69 19/93/72 30/94/78
f 15/95/64 16/96/79 24/97/80 23/98/65
f 9/99/67 10/100/81 18/101/82 17/102/68
f 64/103/83 65/37/37 25/40/40 8/104/84
f 88/105/57 89/5/5 66/8/8 63/106/58
f 16/96/79 26/87/77 27/90/77 24/97/80
f 53/52/52 56/107/85 4/108/86 3/53/53
f 52/109/87 68/51/51 28/54/54 2/110/88
f 76/111/89 92/29/29 67/32/32 51/112/90
f 10/100/81 29/91/78 30/94/78 18/101/82
f 61/34/34 64/113/83 8/114/84 7/35/35
f 60/115/91 70/41/41 31/44/44 6/116/92
f 84/117/49 94/1/1 69/4/4 59/118/50
f 14/84/74 32/75/66 33/78/66 22/85/75
f 57/38/38 60/119/91 6/120/92 5/39/39
f 56/121/85 71/33/33 34/36/36 4/122/86
f 80/123/47 95/9/9 72/12/12 55/124/48
f 52/125/87 49/42/42 50/3/3 51/126/90
f 60/119/91 57/38/38 58/7/7 59/50/50
f 64/113/83 61/34/34 62/11/11 63/58/58
f 56/107/85 53/52/52 54/31/31 55/48/48
f 68/51/51 52/109/87 51/112/90 67/32/32
f 70/41/41 60/115/91 59/118/50 69/4/4
f 66/8/8 58/7/7 57/38/38 65/37/37
f 72/12/12 62/11/11 61/34/34 71/33/33
f 63/106/58 66/8/8 65/37/37 64/103/83
f 53/52/52 68/51/51 67/32/32 54/31/31
f 49/42/42 70/41/41 69/4/4 50/3/3
f 55/124/48 72/12/12 71/33/33 56/121/85
f 49/42/42 52/125/87 2/127/88 1/43/43
f 76/128/89 73/2/2 74/16/16 75/64/62
f 84/49/49 81/6/6 82/20/20 83/46/46
f 88/57/57 85/10/10 86/24/24 87/56/56
f 80/47/47 77/30/30 78/28/28 79/68/59
f 92/29/29 76/111/89 75/65/62 91/25/25
f 94/1/1 84/117/49 83/69/46 93/13/13
f 90/17/17 82/20/20 81/6/6 89/5/5
f 96/21/21 86/24/24 85/10/10 95/9/9
f 87/61/56 90/17/17 89/5/5 88/105/57
f 77/30/30 92/29/29 91/25/25 78/28/28
f 73/2/2 94/1/1 93/13/13 74/16/16
f 79/59/59 96/21/21 95/9/9 80/123/47
f 73/2/2 76/128/89 51/126/90 50/3/3
f 12/80/70 35/71/63 36/74/63 20/81/71
